REM DIRINDEX 1\2,1\3\7,1\3\8,1\4\9,1\4\10,1\4\11,1\5\12,1\5\13,1\5\14,1\6\15,1\6\16,1\6\17
REM DIRNAME "folder01","folder02","folder03","folder04","folder05","folder06","folder07","folder08","folder09","folder10","folder11","folder12","folder13","folder14","folder15","folder16","folder17"
TITLE ""
FILE "2Q_k_061-070.mp3" MP3
  TRACK 01 AUDIO
    TITLE "12:cjc174_1565"
    INDEX 01 00:00:00
  TRACK 02 AUDIO
    TITLE "0:"
    INDEX 01 00:02:01
  TRACK 03 AUDIO
    TITLE "13:cjc174_1566"
    INDEX 01 00:02:52
  TRACK 04 AUDIO
    TITLE "0:"
    INDEX 01 00:05:31
  TRACK 05 AUDIO
    TITLE "14:cjc174_1567"
    INDEX 01 00:06:01
  TRACK 06 AUDIO
    TITLE "14:cjc174_1568"
    INDEX 01 00:08:73
  TRACK 07 AUDIO
    TITLE "0:"
    INDEX 01 00:12:02
  TRACK 08 AUDIO
    TITLE "12:cjc174_1569"
    INDEX 01 00:12:49
  TRACK 09 AUDIO
    TITLE "0:"
    INDEX 01 00:14:16
  TRACK 10 AUDIO
    TITLE "13:cjc174_1570"
    INDEX 01 00:14:61
  TRACK 11 AUDIO
    TITLE "0:"
    INDEX 01 00:16:19
  TRACK 12 AUDIO
    TITLE "14:cjc174_1571"
    INDEX 01 00:16:68
  TRACK 13 AUDIO
    TITLE "14:cjc174_1572"
    INDEX 01 00:18:26
  TRACK 14 AUDIO
    TITLE "0:"
    INDEX 01 00:20:31
  TRACK 15 AUDIO
    TITLE "12:cjc174_1573"
    INDEX 01 00:21:01
  TRACK 16 AUDIO
    TITLE "0:"
    INDEX 01 00:22:35
  TRACK 17 AUDIO
    TITLE "13:cjc174_1574"
    INDEX 01 00:23:07
  TRACK 18 AUDIO
    TITLE "0:"
    INDEX 01 00:24:70
  TRACK 19 AUDIO
    TITLE "14:cjc174_1575"
    INDEX 01 00:25:40
  TRACK 20 AUDIO
    TITLE "14:cjc174_1576"
    INDEX 01 00:30:47
  TRACK 21 AUDIO
    TITLE "0:"
    INDEX 01 00:35:67
  TRACK 22 AUDIO
    TITLE "12:cjc174_1577"
    INDEX 01 00:36:37
  TRACK 23 AUDIO
    TITLE "0:"
    INDEX 01 00:38:32
  TRACK 24 AUDIO
    TITLE "13:cjc174_1578"
    INDEX 01 00:39:04
  TRACK 25 AUDIO
    TITLE "0:"
    INDEX 01 00:40:41
  TRACK 26 AUDIO
    TITLE "14:cjc174_1579"
    INDEX 01 00:41:11
  TRACK 27 AUDIO
    TITLE "14:cjc174_1580"
    INDEX 01 00:43:06
  TRACK 28 AUDIO
    TITLE "0:"
    INDEX 01 00:45:46
  TRACK 29 AUDIO
    TITLE "12:cjc174_1581"
    INDEX 01 00:46:14
  TRACK 30 AUDIO
    TITLE "0:"
    INDEX 01 00:47:73
  TRACK 31 AUDIO
    TITLE "13:cjc174_1582"
    INDEX 01 00:48:43
  TRACK 32 AUDIO
    TITLE "0:"
    INDEX 01 00:51:21
  TRACK 33 AUDIO
    TITLE "14:cjc174_1583"
    INDEX 01 00:51:66
  TRACK 34 AUDIO
    TITLE "14:cjc174_1584"
    INDEX 01 00:54:63
  TRACK 35 AUDIO
    TITLE "0:"
    INDEX 01 00:57:65
  TRACK 36 AUDIO
    TITLE "12:cjc174_1585"
    INDEX 01 00:58:35
  TRACK 37 AUDIO
    TITLE "0:"
    INDEX 01 00:59:58
  TRACK 38 AUDIO
    TITLE "13:cjc174_1586"
    INDEX 01 01:00:34
  TRACK 39 AUDIO
    TITLE "0:"
    INDEX 01 01:02:74
  TRACK 40 AUDIO
    TITLE "14:cjc174_1587"
    INDEX 01 01:03:44
  TRACK 41 AUDIO
    TITLE "14:cjc174_1588"
    INDEX 01 01:05:65
  TRACK 42 AUDIO
    TITLE "0:"
    INDEX 01 01:09:10
  TRACK 43 AUDIO
    TITLE "12:cjc174_1589"
    INDEX 01 01:09:55
  TRACK 44 AUDIO
    TITLE "0:"
    INDEX 01 01:11:03
  TRACK 45 AUDIO
    TITLE "13:cjc174_1590"
    INDEX 01 01:11:53
  TRACK 46 AUDIO
    TITLE "0:"
    INDEX 01 01:13:09
  TRACK 47 AUDIO
    TITLE "14:cjc174_1591"
    INDEX 01 01:13:54
  TRACK 48 AUDIO
    TITLE "14:cjc174_1592"
    INDEX 01 01:18:16
  TRACK 49 AUDIO
    TITLE "0:"
    INDEX 01 01:21:01
  TRACK 50 AUDIO
    TITLE "12:cjc174_1593"
    INDEX 01 01:21:44
  TRACK 51 AUDIO
    TITLE "0:"
    INDEX 01 01:22:65
  TRACK 52 AUDIO
    TITLE "13:cjc174_1594"
    INDEX 01 01:23:43
  TRACK 53 AUDIO
    TITLE "0:"
    INDEX 01 01:25:05
  TRACK 54 AUDIO
    TITLE "14:cjc174_1595"
    INDEX 01 01:25:54
  TRACK 55 AUDIO
    TITLE "14:cjc174_1596"
    INDEX 01 01:28:38
  TRACK 56 AUDIO
    TITLE "0:"
    INDEX 01 01:31:31
  TRACK 57 AUDIO
    TITLE "12:cjc174_1597"
    INDEX 01 01:32:07
  TRACK 58 AUDIO
    TITLE "0:"
    INDEX 01 01:33:39
  TRACK 59 AUDIO
    TITLE "13:cjc174_1598"
    INDEX 01 01:34:19
  TRACK 60 AUDIO
    TITLE "0:"
    INDEX 01 01:35:38
  TRACK 61 AUDIO
    TITLE "14:cjc174_1599"
    INDEX 01 01:36:08
  TRACK 62 AUDIO
    TITLE "14:cjc174_1600"
    INDEX 01 01:38:17
  TRACK 63 AUDIO
    TITLE "0:"
    INDEX 01 01:43:38
  TRACK 64 AUDIO
    TITLE "12:cjc174_1601"
    INDEX 01 01:44:16
  TRACK 65 AUDIO
    TITLE "0:"
    INDEX 01 01:46:09
  TRACK 66 AUDIO
    TITLE "13:cjc174_1602"
    INDEX 01 01:46:56
  TRACK 67 AUDIO
    TITLE "0:"
    INDEX 01 01:48:21
  TRACK 68 AUDIO
    TITLE "14:cjc174_1603"
    INDEX 01 01:48:66
  TRACK 69 AUDIO
    TITLE "14:cjc174_1604"
    INDEX 01 01:53:17
  TRACK 70 AUDIO
    TITLE "0:"
    INDEX 01 01:55:21
